<?xml version="1.0" encoding="UTF-8" standalone="no"?>
<svg xmlns:dc="http://purl.org/dc/elements/1.1/" xmlns:cc="http://creativecommons.org/ns#" xmlns:rdf="http://www.w3.org/1999/02/22-rdf-syntax-ns#"
  xmlns:svg="http://www.w3.org/2000/svg" xmlns="http://www.w3.org/2000/svg" height="80" width="100" xml:space="preserve" viewBox="0 0 100 80"
  y="0px" x="0px" id="logo" version="1.1">
  <path d="m 50.960695,5.286089 c -18.290234,0 -33.117383,14.74132 -33.117383,32.925681 0,18.18436 14.827149,32.92568 33.117383,32.92568 18.290234,0 33.117383,-14.74132 33.117383,-32.92568 0,-18.184361 -14.827149,-32.925681 -33.117383,-32.925681 z M 50.9605,63.195021 c -13.85586,0 -25.128516,-11.207404 -25.128516,-24.983057 0,-13.775654 11.272656,-24.983058 25.128516,-24.983058 13.855859,0 25.128515,11.207404 25.128515,24.983058 0,13.775653 -11.272461,24.983057 -25.128515,24.983057 z"
  />
  <path d="M 50.960938 19.925781 C 40.819139 19.925781 32.568359 28.127845 32.568359 38.210938 C 32.568359 48.294027 40.819141 56.498047 50.960938 56.498047 C 61.102733 56.498047 69.353516 48.294027 69.353516 38.210938 C 69.353516 28.127847 61.102928 19.925781 50.960938 19.925781 z M 48.820312 28.5625 C 50.350313 28.5025 51.670625 28.954141 52.390625 30.994141 C 53.020625 32.794141 52.600938 34.622344 51.460938 36.152344 C 49.840938 38.312344 46.601484 40.202422 43.271484 40.982422 C 44.411484 42.392422 45.491094 43.83375 46.121094 45.09375 C 46.541094 45.90375 46.661484 46.923437 46.271484 47.523438 C 46.121484 47.763438 45.971016 47.853984 45.791016 47.583984 C 43.811016 44.883984 42.251797 42.933047 40.841797 41.373047 C 40.031797 42.963047 39.159922 44.8525 38.169922 47.3125 C 38.049922 47.6125 37.901406 47.643594 37.691406 47.433594 C 37.271406 46.983594 36.969922 46.082891 37.419922 44.462891 C 38.169922 41.732891 40.990859 36.032578 43.630859 31.892578 C 42.610859 31.802578 42.070937 31.353359 41.710938 30.693359 C 41.560938 30.393359 41.651016 30.243594 42.041016 30.183594 C 44.561016 29.883594 46.810313 28.6525 48.820312 28.5625 z M 61.417969 28.5625 C 62.947969 28.5025 64.268281 28.954141 64.988281 30.994141 C 65.618281 32.794141 65.198594 34.622344 64.058594 36.152344 C 62.438594 38.312344 59.199141 40.202422 55.869141 40.982422 C 57.009141 42.392422 58.08875 43.83375 58.71875 45.09375 C 59.13875 45.90375 59.259141 46.923437 58.869141 47.523438 C 58.719141 47.763438 58.568672 47.853984 58.388672 47.583984 C 56.408672 44.883984 54.849453 42.933047 53.439453 41.373047 C 52.629453 42.963047 51.757578 44.8525 50.767578 47.3125 C 50.647578 47.6125 50.499063 47.643594 50.289062 47.433594 C 49.869062 46.983594 49.567578 46.082891 50.017578 44.462891 C 50.767578 41.732891 53.588516 36.032578 56.228516 31.892578 C 55.208516 31.802578 54.668594 31.353359 54.308594 30.693359 C 54.158594 30.393359 54.248672 30.243594 54.638672 30.183594 C 57.158672 29.883594 59.407969 28.6525 61.417969 28.5625 z M 49.548828 30.544922 C 48.334766 30.639258 46.698436 31.375391 45.460938 31.712891 C 45.460937 32.552891 45.130313 33.603516 44.320312 35.103516 C 43.510313 36.543516 42.761172 37.803438 41.951172 39.273438 C 48.581172 37.803438 51.971562 33.422969 51.101562 31.292969 C 50.854062 30.662969 50.277266 30.48832 49.548828 30.544922 z M 62.146484 30.544922 C 60.932422 30.639258 59.296094 31.375391 58.058594 31.712891 C 58.058594 32.552891 57.727969 33.603516 56.917969 35.103516 C 56.107969 36.543516 55.358828 37.803438 54.548828 39.273438 C 61.178828 37.803438 64.569219 33.422969 63.699219 31.292969 C 63.451719 30.662969 62.874922 30.48832 62.146484 30.544922 z "
  />
  <path d="m 97.275929,40.972454 0,-40.01060219 c 0,-0.38603366 -0.247851,-0.72915311 -0.61621,-0.85245863 -0.367969,-0.12311134 -0.774024,0.001359 -1.008985,0.30894343 C 90.62964,7.0016862 87.912062,15.036934 87.912062,23.298792 l 0,14.637045 c 0,1.678703 1.36875,3.039724 3.057422,3.039724 l 1.27461,0 c -1.256446,12.902029 -2.086719,30.946772 -2.086719,33.059666 0,3.328666 2.060742,6.027018 4.602734,6.027018 2.541992,0 4.602735,-2.698546 4.602735,-6.027018 0,-2.113088 -0.830274,-20.160744 -2.086915,-33.062773 z"
  />
  <path d="m 12.725539,33.041288 c 2.547265,-1.534038 4.249805,-4.315499 4.249805,-7.492704 L 15.713625,5.0388954 c -0.04824,-0.7817764 -0.7,-1.3913135 -1.487891,-1.3913135 -0.852148,0 -1.531055,0.709735 -1.488672,1.5553972 L 13.55757,21.651935 c 0,0.924695 -0.754101,1.674043 -1.683789,1.674043 -0.929883,0 -1.683789,-0.749737 -1.683789,-1.674043 L 9.780031,5.2097755 C 9.7583513,4.3408114 9.0437029,3.6477761 8.1692888,3.6477761 c -0.874414,0 -1.5888671,0.6932295 -1.6107421,1.5619994 L 6.1485857,21.651935 c 0,0.924695 -0.7541015,1.674043 -1.683789,1.674043 -0.9298829,0 -1.6837891,-0.749737 -1.6837891,-1.674043 L 3.6015154,5.2029791 C 3.6437029,4.3569285 2.964406,3.6475819 2.1128435,3.6475819 c -0.7878906,0 -1.43964841,0.6095371 -1.48769528,1.3913135 L -0.63715647,25.548778 c 0,3.177205 1.70234377,5.958472 4.24980467,7.492704 1.6578125,0.998289 2.5820313,2.864766 2.3683594,4.780176 -1.4380859,12.885524 -2.4146484,33.922222 -2.4146484,36.213763 0,3.328667 2.0607421,6.027018 4.6027343,6.027018 2.5419925,0 4.6027345,-2.698546 4.6027345,-6.027018 0,-2.291541 -0.976758,-23.328239 -2.414649,-36.213763 -0.213867,-1.91444 0.711329,-3.78247 2.36836,-4.78037 z"
  />
</svg>